# Blender v2.78 (sub 0) OBJ File: 'cave.blend'
# www.blender.org
mtllib Cave_open.mtl
o Cube
v 1.828800 -1.066798 -1.828800
v 1.828800 -1.066798 1.828800
v -1.828800 -1.066798 1.828800
v -1.828800 -1.066800 -1.828800
v 1.828800 1.295400 -1.828799
v 1.828799 1.295400 1.828800
v -1.828800 1.295400 1.828799
v -1.828800 1.295400 -1.828800
v 1.828800 -1.066798 -2.011680
v -2.011680 -1.066798 -2.011680
v 1.828800 1.295400 -2.011679
v 1.828800 -1.066798 2.011680
v -2.011680 -1.066798 2.011680
v 1.828799 1.295400 2.011681
v -2.011680 1.295400 2.011680
v -2.011680 1.295400 -2.011680
v 1.828800 -1.243000 -1.828800
v 1.828800 -1.243000 1.828800
v -1.828800 -1.243000 -1.828800
v -1.828800 -1.243000 1.828800
v 1.828800 -1.243000 -2.011680
v -2.011680 -1.243000 -2.011680
v 1.828800 -1.243000 2.011680
v -2.011680 -1.243000 2.011680
v 0.457200 -1.066798 -1.828800
v 0.457200 -1.066798 1.828800
v 0.457200 1.295400 -1.828800
v 0.457199 1.295400 1.828800
v 0.457200 -1.066798 -2.011680
v 0.457200 -1.066798 2.011680
v 0.457200 1.295400 -2.011680
v 0.457199 1.295400 2.011680
v 0.457200 -1.243000 -1.828800
v 0.457200 -1.243000 1.828800
v 0.457200 -1.243000 -2.011680
v 0.457200 -1.243000 2.011680
v 1.828800 1.219200 -1.828799
v 1.828799 1.219200 1.828800
v 1.828800 1.219200 -2.011679
v 1.828799 1.219200 2.011681
v -2.011680 1.219200 2.011679
v -2.011680 1.219200 -2.011680
v -1.828800 1.219200 1.828799
v -1.828800 1.219200 -1.828800
v 0.457200 1.219200 -1.828800
v 0.457199 1.219200 1.828800
v 0.457200 1.219200 -2.011680
v 0.457199 1.219200 2.011680
v 1.866900 1.219200 -1.828799
v 1.866900 1.295400 -1.828799
v 1.866899 1.219200 1.828800
v 1.866899 1.295400 1.828800
v 1.866899 1.295400 2.011681
v 1.866900 1.219200 -2.011679
v 1.866900 1.295400 -2.011679
v 1.866899 1.219200 2.011681
v 1.866900 -1.066798 2.011680
v 1.866900 -1.066798 1.828800
v 1.866900 -1.066798 -1.828800
v 1.866900 -1.066798 -2.011680
v 1.866900 -1.243000 1.828800
v 1.866900 -1.243000 2.011680
v 1.866900 -1.243000 -1.828800
v 1.866900 -1.243000 -2.011680
v -1.828800 -1.066798 -1.828800
v -1.828800 1.295400 -1.828800
v -1.828800 1.295400 1.828800
v -1.828800 -1.066798 -2.011680
v -1.828800 -1.066798 2.011680
v -1.828800 1.295400 -2.011680
v -1.828800 1.295400 2.011679
v -1.828800 -1.243000 -1.828800
v -1.828800 -1.243000 1.828800
v -1.828800 -1.243000 -2.011680
v -1.828800 -1.243000 2.011680
v -1.828800 1.219200 1.828800
v -1.828800 1.219200 -1.828800
v -1.828800 1.219200 -2.011680
v -1.828800 1.219200 2.011679
v -2.011680 1.295400 1.828800
v -2.011680 1.295400 -1.828800
v -1.828800 1.295400 -1.828800
v -2.011680 -1.066798 -1.832649
v -2.011680 -1.243000 -1.828800
v -2.011680 1.219200 -1.828800
v -2.011680 -1.243000 1.828800
v -2.011680 1.219200 1.828800
v -2.011680 -1.066798 1.828800
vn 0.0000 0.0000 1.0000
vn 0.0000 0.0000 -1.0000
vn 0.0000 1.0000 -0.0000
vn -1.0000 0.0000 0.0000
vn -0.0105 -0.0008 0.9999
vn 1.0000 0.0000 -0.0000
vn 0.0000 -1.0000 0.0000
vn 0.1274 0.9918 0.0000
usemtl Material
s off
f 12//1 23//1 62//1 57//1
f 2//2 38//2 51//2 58//2
f 18//2 2//2 58//2 61//2
f 81//3 66//3 70//3 16//3
f 79//1 71//1 15//1 41//1
f 41//4 15//4 80//4 87//4
f 78//2 68//2 10//2 42//2
f 71//3 67//3 80//3 15//3
f 27//3 5//3 11//3 31//3
f 69//1 13//1 24//1 75//1
f 13//4 88//4 86//4 24//4
f 37//1 1//1 59//1 49//1
f 46//2 28//2 6//2 38//2
f 77//5 85//5 83//5 65//5
f 77//6 65//6 68//6 78//6
f 72//1 73//1 20//1 19//1
f 22//7 74//7 72//7 84//7
f 34//7 18//7 23//7 36//7
f 24//7 86//7 73//7 75//7
f 25//8 26//8 18//8 17//8
f 29//2 9//2 21//2 35//2
f 25//4 33//4 34//4 26//4
f 2//2 18//2 26//2
f 68//2 29//2 35//2 74//2
f 17//7 33//7 35//7 21//7
f 73//7 34//7 36//7 75//7
f 17//7 18//7 34//7 33//7
f 37//4 39//4 9//4 1//4
f 76//2 67//2 28//2 46//2
f 12//1 30//1 36//1 23//1
f 66//3 27//3 31//3 70//3
f 25//3 1//3 9//3 29//3
f 40//1 14//1 32//1 48//1
f 6//3 28//3 32//3 14//3
f 17//1 1//1 25//1
f 11//2 39//2 47//2 31//2
f 31//2 47//2 78//2 70//2
f 66//1 77//1 45//1 27//1
f 27//1 45//1 37//1 5//1
f 7//6 43//6 44//6 8//6 82//6 67//6
f 8//1 44//1 77//1 66//1
f 70//2 78//2 42//2 16//2
f 13//4 41//4 87//4 88//4
f 69//1 79//1 41//1 13//1
f 5//1 37//1 49//1 50//1
f 11//3 5//3 50//3 55//3
f 60//6 59//6 63//6 64//6
f 49//6 59//6 60//6 54//6
f 51//6 52//6 53//6 56//6
f 58//6 57//6 62//6 61//6
f 58//6 51//6 56//6 57//6
f 50//6 49//6 54//6 55//6
f 38//2 6//2 52//2 51//2
f 9//2 39//2 54//2 60//2
f 39//2 11//2 55//2 54//2
f 1//1 17//1 63//1 59//1
f 40//1 12//1 57//1 56//1
f 21//2 9//2 60//2 64//2
f 6//3 14//3 53//3 52//3
f 23//7 18//7 61//7 62//7
f 14//1 40//1 56//1 53//1
f 17//7 21//7 64//7 63//7
f 84//4 83//4 10//4 22//4
f 43//1 7//1 67//1 76//1
f 44//1 4//1 65//1 77//1
f 73//7 86//7 84//7 72//7
f 10//2 68//2 74//2 22//2
f 65//1 72//1 33//1 25//1
f 33//7 72//7 74//7 35//7
f 73//6 72//6 65//6 3//6
f 30//1 69//1 75//1 36//1
f 65//3 25//3 29//3 68//3
f 48//1 32//1 71//1 79//1
f 28//3 67//3 71//3 32//3
f 85//4 81//4 16//4 42//4
f 80//3 67//3 82//3 81//3
f 83//4 85//4 42//4 10//4
f 88//3 3//3 65//3 83//3
f 86//4 88//4 83//4 84//4
f 87//4 80//4 81//4 85//4
f 76//7 46//7 48//7 79//7
f 40//7 48//7 46//7 38//7
f 38//4 2//4 12//4 40//4
f 26//3 30//3 12//3 2//3
f 3//3 69//3 30//3 26//3
f 3//6 43//6 79//6 69//6
f 3//2 88//2 87//2 43//2
f 44//7 43//7 87//7 85//7
f 77//7 78//7 47//7 45//7
f 39//7 37//7 45//7 47//7
f 3//2 26//2 34//2 73//2
