<svg version="1" xmlns="http://www.w3.org/2000/svg" width="682.667" height="682.667" viewBox="0 0 512.000000 512.000000"><path d="M246.5 6c-.3.5-1.2 6-2 11.5-.5 4.2-1.5 10.5-2 13.5-.3 1.4-.7 4.3-1 6.5-.3 2.2-.8 5.1-1 6.5-.3 1.4-.7 4.3-1 6.5-.3 2.2-1 6.2-1.5 9-.5 2.7-1.2 7-1.5 9.5-.6 4.7-3.9 25.7-5.5 35-.8 5-1.4 8.9-2.5 16.7-.3 2.8-2.2 14.7-3 19-.2 1.2-.8 5.7-1.5 10-.6 4.3-1.5 10-2 12.8-.5 2.7-1.2 6.8-1.4 9-.3 2.2-.7 5.1-1 6.5-.2 1.4-1 5.9-1.6 10-.6 4.1-1.4 8.6-1.6 10-.2 1.4-.7 4.3-.9 6.5-.3 2.2-1.2 7.8-2 12.5s-1.7 10.7-2.1 13.5c-.3 2.7-.8 5.9-1 7-.8 3.7-1.3 6.9-2.3 14.5-.6 4.1-1.3 8.6-1.5 10-.3 1.4-1.2 7.4-2.1 13.5-1.9 12.4-2.3 15-3 18.4-.2 1.3-.7 4.9-1.1 8-.3 3.1-.8 5.9-1 6.2-.2.4-.6 3.1-1 6-.3 3-1.2 8.1-1.8 11.4l-1.2 6-1.7-8c-.9-4.4-3-13.6-4.7-20.5-1.7-6.9-3.4-14.3-3.9-16.5-.5-2.2-2.1-9.2-3.6-15.5-1.5-6.3-2.8-12.2-3-13-.2-.8-1.3-5.6-2.5-10.5-1.1-5-2.8-11.9-3.6-15.5-.8-3.6-1.8-7.6-2.1-9-.3-1.4-.8-3.4-1-4.4-.2-1-1.2-5.3-2.3-9.5-1-4.2-2.1-9-2.4-10.6-.3-1.7-1.9-8.6-3.6-15.5-1.6-6.9-4.8-20.4-7-30-2.2-9.6-4.3-18.6-4.7-20-.3-1.4-.7-3-.9-3.5-3.5-14.8-3.7-15.6-4.8-21.1-.2-1.1-1.6-6.9-3-12.8-2.9-12.2-3.2-18.1-1.2-23.1 2-4.7 5.7-6.9 11.7-6.7l5 .1-.3-11.7-.3-11.7h-81l-.3 11.6-.3 11.6 4 .7c5.2.8 10.8 5.7 12.1 10.4.5 2.1 1.8 7.5 2.9 12.2 2 8.7 4 17.5 11 47.5 2.2 9.3 5.3 22.8 7 30 3.8 16.3 6 25.7 15.5 66.5 2.6 10.7 4.8 20.4 5 21.5.3 1.1 1 4.2 1.6 7 .6 2.7 1.3 5.7 1.5 6.5.2.8.9 3.7 1.5 6.5.6 2.7 1.3 5.7 1.5 6.5.2.8 1.2 5.4 2.4 10.2 4.4 18.5 7.2 30.3 8.6 36.8.2.8 2.8 12.1 5.9 25 3 12.9 6.4 27.5 7.5 32.5 1.1 4.9 3.6 15.5 5.5 23.5s3.7 15.6 4 17c.3 1.4 1.2 5.2 2 8.6.8 3.4 1.7 7.2 2 8.5.2 1.3 3.6 16 7.5 32.5 3.9 16.6 7.1 30.3 7.1 30.6 0 .5 13.8.3 14.4-.3.5-.4 2-9 3.1-17.4.2-2.2.7-5.1 1-6.4.2-1.4.7-4.7 1-7.4.3-2.8.8-5.3.9-5.6.2-.3.7-3.1 1.1-6.1.3-3 .8-6.6 1-8 .9-5.5 1.6-9.6 2-12 .2-1.4.7-4.5 1-7 .3-2.5 1.2-8.3 2-13 .8-4.7 1.7-10.5 2-13 .4-2.5 2-13.1 3.6-23.5 1.6-10.5 3.1-20.4 3.3-22 .5-3.6 2-12.8 2.1-13.5.1-.3.5-3 .9-6 .5-3 1-6.3 1.2-7.2.1-1 1.4-9.6 2.8-19 1.5-9.5 2.8-18.2 3-19.3.7-3.6 2-12.5 3.1-20.5.3-2.5.8-5.2 1-6 .2-.8.7-3.9 1-6.9.4-3 .9-6.3 1.1-7.5.2-1.1.6-3.8.9-6.1.6-3.7 1-6.2 2-12.5.8-5.1 2.5-15.6 3-19.5 1.6-11.7 2.8-18.5 3.1-18.2.3.3 2.5 11.1 4 19.7.3 1.4.7 3.2.9 4 .2.8.7 3.1 1 5 .3 1.9.8 4.6 1 6 1.1 5.4 1.5 7.6 2.1 10.5.5 3 3.5 18.6 13.8 71.2 3.1 15.6 5.8 29.5 6.1 31 .2 1.6 2.1 10.9 4 20.8 2 9.9 3.8 19.3 4.1 21 .3 1.6 2 10.6 3.9 20 1.8 9.3 3.6 18.3 3.8 20 .3 1.6 1.2 6.4 2.1 10.5.8 4.1 1.8 9.1 2.1 11 .3 1.9 1 5.3 1.5 7.5s1.1 5.5 1.5 7.3c.3 1.8 2.1 11.3 4 21s3.5 17.7 3.5 17.8h6.5c5.7-.1 6.6-.4 7-2.1 1.9-8 20.6-93.2 20.9-94.9.2-1.2 1.8-8.2 3.5-15.6 5.7-25.6 8.1-36.5 10.7-48.5 1.4-6.6 2.9-13.4 3.4-15 .5-1.7 1.1-4.6 1.5-6.5.3-1.9 1.1-6.2 1.9-9.5 1.7-7.3 10.1-45.4 12.2-54.9.8-3.8 2.4-10.7 3.4-15.2 1.1-4.5 2.2-9.5 2.5-11.1.2-1.5.7-3.7 1-4.8.2-1.1.9-3.8 1.4-6 .6-2.2 1.2-5.4 1.5-7 .3-1.7.8-3.9 1-5 2.9-13.1 3.8-17.2 4.1-18.5.2-.8 1.1-4.8 2-8.9.9-4.1 1.8-7.7 2-8 .1-.3.6-2.2.9-4.1.5-3.6 9.6-45 12.1-55.5 1.8-7.4 7.4-33.1 8.1-37 .7-3.7 1.7-5.5 4.8-8.4 2.2-2 3.7-2.5 8.6-2.5l6-.1-.2-12.5-.3-12.5-35.5-.1c-19.5 0-36 .1-36.6.3-.6.2-1 4.7-.9 12.1l.1 11.7h6.5c7.7 0 11.4 1.9 13.5 7 1.8 4.3 1.3 9.2-2.5 24.7-1.6 6.8-4.6 19.5-6.5 28.3-2 8.8-4.3 18.9-5.2 22.4-.9 3.6-1.7 7.2-1.9 8-.2.9-1.2 5.4-2.3 10.1-2 8.8-11.1 48.4-11.7 51-.2.8-1.8 7.6-3.5 15-1.8 7.4-3.3 14.2-3.5 15-.2.8-.9 3.7-1.5 6.5-.6 2.7-1.3 5.7-1.5 6.5-.2.8-2.2 9.6-4.5 19.5s-4.4 18.9-4.6 20c-.2 1.1-2.2 9.4-4.3 18.5l-3.8 16.5-2.1-9.5c-1.2-5.2-5.8-27.1-10.2-48.5-10.5-50.4-16.3-78.1-19.5-93-1.4-6.6-2.8-13.2-3-14.8-.3-1.5-1.2-6-2.1-10-.8-3.9-1.8-8.3-2-9.7-.3-1.4-2.9-14-5.9-28-3-14-5.6-26.6-5.9-28-1-5.1-2.6-12.8-5-24-1.4-6.3-2.7-12.6-3-14-.2-1.4-1.2-6.1-2.1-10.5-.9-4.4-1.9-9-2.1-10.3-.5-2.3-5-23.8-5.9-27.7-.4-1.7-1.2-2-6-2.1-3.1 0-5.8.3-6 .6z"/></svg>